<svg width="80" height="80" viewBox="0 0 80 80" fill="none" xmlns="http://www.w3.org/2000/svg">
<path d="M29.0564 33.1521H16.9684C16.7146 33.1511 16.4635 33.0996 16.2299 33.0005C15.9962 32.9014 15.7845 32.7569 15.6073 32.5752C15.4301 32.3935 15.2908 32.1783 15.1976 31.9422C15.1044 31.7061 15.0591 31.4539 15.0644 31.2001C15.1204 25.5121 18.8244 21.4881 24.4804 17.8241C24.6012 17.7475 24.7014 17.6426 24.7725 17.5186C24.8436 17.3945 24.8834 17.255 24.8884 17.1121V13.7041C24.8761 13.5481 24.8261 13.3974 24.7428 13.265C24.6594 13.1326 24.5453 13.0223 24.41 12.9437C24.2747 12.865 24.1224 12.8203 23.9661 12.8134C23.8098 12.8065 23.6541 12.8377 23.5124 12.9041L13.6644 16.9041C7.20043 19.5441 2.66443 25.2161 2.40043 31.6481C2.40043 31.8881 2.40043 32.1281 2.40043 32.3601V39.6881C2.40043 39.9361 2.40043 40.1841 2.40043 40.4321V59.8961C2.39398 61.8172 3.14719 63.6631 4.49588 65.0312C5.84456 66.3994 7.67939 67.179 9.60043 67.2001H29.0564C30.9872 67.2001 32.8389 66.4331 34.2042 65.0678C35.5694 63.7026 36.3364 61.8509 36.3364 59.9201V40.4321C36.3364 38.5013 35.5694 36.6496 34.2042 35.2844C32.8389 33.9191 30.9872 33.1521 29.0564 33.1521V33.1521Z" fill="#F0F5F8"/>
<path d="M70.4007 33.1522H58.3127C58.0592 33.1512 57.8085 33.0996 57.5753 33.0005C57.342 32.9013 57.1309 32.7566 56.9543 32.5748C56.7777 32.393 56.6392 32.1778 56.5469 31.9417C56.4546 31.7057 56.4103 31.4536 56.4167 31.2002C56.4647 25.5122 60.1687 21.4882 65.8247 17.8242C65.9469 17.7492 66.0483 17.6447 66.1196 17.5203C66.1909 17.3959 66.2298 17.2555 66.2327 17.1122V13.7042C66.2199 13.5493 66.1699 13.3997 66.087 13.2682C66.0042 13.1367 65.8909 13.027 65.7567 12.9486C65.6225 12.8701 65.4714 12.8251 65.3161 12.8174C65.1608 12.8096 65.006 12.8394 64.8647 12.9042L55.0087 16.9042C48.5047 19.5442 44.0007 25.2162 43.7207 31.6482C43.7207 31.8882 43.7207 32.1282 43.7207 32.3602V39.6882C43.7207 39.9362 43.7207 40.1842 43.7207 40.4322V59.8962C43.7207 61.827 44.4877 63.6787 45.853 65.0439C47.2182 66.4092 49.0699 67.1762 51.0007 67.1762H70.4007C72.3315 67.1762 74.1832 66.4092 75.5484 65.0439C76.9137 63.6787 77.6807 61.827 77.6807 59.8962V40.4322C77.6807 38.5014 76.9137 36.6497 75.5484 35.2844C74.1832 33.9192 72.3315 33.1522 70.4007 33.1522V33.1522Z" fill="#F0F5F8"/>
</svg>
